<svg xmlns="http://www.w3.org/2000/svg" xmlns:xlink="http://www.w3.org/1999/xlink" width="57.303985595703125" height="34" viewBox="0 0 57.303985595703125 34" fill="none"><g id="文本 1" filter="url(#filter_0)"><g opacity="1" transform="translate(4.303985595703125 0)  rotate(0)"><path id="文本 1"  style="fill:#000000" opacity="1" d="M4.524 14.076C5.664 14.076 6.528 13.62 7.224 12.816L6.612 12.108C6.048 12.732 5.412 13.104 4.572 13.104C2.892 13.104 1.836 11.712 1.836 9.492C1.836 7.296 2.952 5.94 4.608 5.94C5.364 5.94 5.94 6.276 6.408 6.768L7.008 6.048C6.504 5.484 5.664 4.968 4.596 4.968C2.364 4.968 0.696 6.684 0.696 9.528C0.696 12.384 2.328 14.076 4.524 14.076ZM11.292 14.076C12.888 14.076 14.304 12.828 14.304 10.668C14.304 8.496 12.888 7.236 11.292 7.236C9.696 7.236 8.28 8.496 8.28 10.668C8.28 12.828 9.696 14.076 11.292 14.076ZM11.292 13.164C10.164 13.164 9.408 12.168 9.408 10.668C9.408 9.168 10.164 8.16 11.292 8.16C12.42 8.16 13.188 9.168 13.188 10.668C13.188 12.168 12.42 13.164 11.292 13.164ZM18.564 14.076C20.16 14.076 21.576 12.828 21.576 10.668C21.576 8.496 20.16 7.236 18.564 7.236C16.968 7.236 15.552 8.496 15.552 10.668C15.552 12.828 16.968 14.076 18.564 14.076ZM18.564 13.164C17.436 13.164 16.68 12.168 16.68 10.668C16.68 9.168 17.436 8.16 18.564 8.16C19.692 8.16 20.46 9.168 20.46 10.668C20.46 12.168 19.692 13.164 18.564 13.164ZM24.456 14.076C24.756 14.076 24.936 14.028 25.092 13.98L24.936 13.14C24.816 13.164 24.768 13.164 24.708 13.164C24.54 13.164 24.408 13.032 24.408 12.696L24.408 4.368L23.304 4.368L23.304 12.624C23.304 13.548 23.64 14.076 24.456 14.076Z"></path><path  id="文本 1" style="fill:#000000; opacity:1;" d="M22.7746,14.2973c-0.31373,-0.41747 -0.4706,-0.97523 -0.4706,-1.6733v-0.266c-0.0122,0.03507 -0.0248,0.06997 -0.0378,0.1047c-0.2022,0.5396 -0.49323,1.00907 -0.8731,1.4084c-0.371,0.39013 -0.8031,0.6893 -1.2963,0.8975c-0.48567,0.20493 -0.9966,0.3074 -1.5328,0.3074c-0.5362,0 -1.04713,-0.10247 -1.5328,-0.3074c-0.4932,-0.2082 -0.9253,-0.50737 -1.2963,-0.8975c-0.3402,-0.35767 -0.60917,-0.7716 -0.8069,-1.2418c-0.19773,0.4702 -0.4667,0.88413 -0.8069,1.2418c-0.371,0.39013 -0.8031,0.6893 -1.2963,0.8975c-0.48567,0.20493 -0.9966,0.3074 -1.5328,0.3074c-0.5362,0 -1.04712,-0.10247 -1.53277,-0.3074c-0.49323,-0.2082 -0.92535,-0.50737 -1.29636,-0.8975c-0.14697,-0.15453 -0.28065,-0.31957 -0.40103,-0.4951l-0.08178,0.0945c-0.92655,1.07033 -2.07857,1.6055 -3.45606,1.6055c-0.68853,0 -1.33099,-0.13123 -1.92739,-0.3937c-0.60255,-0.2652 -1.12345,-0.6488 -1.56269,-1.1508c-0.43688,-0.49927 -0.76921,-1.08957 -0.997,-1.7709c-0.22728,-0.6798 -0.34091,-1.424 -0.34091,-2.2326c0,-0.80775 0.11634,-1.55278 0.34902,-2.23508c0.23264,-0.68219 0.57129,-1.27388 1.01594,-1.77507c0.44621,-0.50296 0.97418,-0.88754 1.58391,-1.15375c0.60483,-0.26407 1.2552,-0.3961 1.95113,-0.3961c0.65354,0 1.2729,0.14359 1.85808,0.43078c0.50021,0.24549 0.93341,0.57312 1.29958,0.98289l0.57506,0.64352l-1.87136,2.24563l-0.77392,-0.81361c-0.32799,-0.34481 -0.68647,-0.51721 -1.07544,-0.51721c-0.51259,0 -0.9203,0.19115 -1.22315,0.57345c-0.3659,0.46189 -0.54885,1.12141 -0.54885,1.97855c0,0.88567 0.17834,1.56383 0.53501,2.0345c0.29173,0.385 0.69206,0.5775 1.20099,0.5775c0.24419,0 0.46697,-0.05147 0.66832,-0.1544c0.20685,-0.10573 0.41678,-0.27643 0.62981,-0.5121l0.75858,-0.8393l0.69912,0.8088c-0.03189,-0.23907 -0.04783,-0.4854 -0.04783,-0.739c0,-0.64759 0.10301,-1.24808 0.30903,-1.80146c0.20176,-0.54196 0.49216,-1.01376 0.8712,-1.41539c0.37087,-0.39298 0.80291,-0.69446 1.29613,-0.90443c0.48656,-0.20715 0.99844,-0.31072 1.53564,-0.31072c0.5372,0 1.04907,0.10357 1.5356,0.31072c0.49327,0.20997 0.92533,0.51145 1.2962,0.90443c0.33893,0.35917 0.607,0.77444 0.8042,1.24583c0.1972,-0.47139 0.46527,-0.88666 0.8042,-1.24583c0.37087,-0.39298 0.80293,-0.69446 1.2962,-0.90443c0.48653,-0.20715 0.9984,-0.31072 1.5356,-0.31072c0.5372,0 1.04907,0.10357 1.5356,0.31072c0.49327,0.20997 0.92533,0.51145 1.2962,0.90443c0.379,0.40164 0.6694,0.87344 0.8712,1.41539c0.01273,0.03421 0.02507,0.0686 0.037,0.10317v-5.60171h3.104v8.6578l0.3261,-0.0652l0.5038,2.7131l-0.8518,0.2621c-0.3038,0.09347 -0.61383,0.1402 -0.9301,0.1402c-0.34107,0 -0.64933,-0.06023 -0.9248,-0.1807c-0.305,-0.13333 -0.5572,-0.33267 -0.7566,-0.598zM24.595,14.0723c0.2197,-0.0121 0.3667,-0.0522 0.497,-0.0923l-0.156,-0.84c-0.0203,0.0041 -0.0385,0.0074 -0.055,0.0102c-0.0154,0.0026 -0.0294,0.0047 -0.0423,0.0065c-0.0553,0.0073 -0.0903,0.0073 -0.1307,0.0073c-0.0766,0 -0.1458,-0.0275 -0.1983,-0.0892c-0.0627,-0.0737 -0.1017,-0.1961 -0.1017,-0.3788v-8.328h-1.104v8.256c0,0.7687 0.2325,1.2633 0.7805,1.4079c0.0339,0.0089 0.069,0.0165 0.1052,0.0227c0.0824,0.0142 0.1711,0.0214 0.2663,0.0214c0.0494,0 0.0956,-0.0013 0.139,-0.0037zM3.73769,12.9752c-1.18774,-0.3922 -1.90169,-1.6578 -1.90169,-3.4832c0,-1.72007 0.68469,-2.92479 1.77727,-3.36618c0.3023,-0.12213 0.63583,-0.18582 0.99473,-0.18582c0.47621,0 0.881,0.13332 1.23236,0.35497c0.16871,0.10643 0.32511,0.23322 0.47118,0.3754c0.03266,0.03179 0.06481,0.06435 0.09646,0.09763l0.6,-0.72c-0.19291,-0.21587 -0.43503,-0.42471 -0.72033,-0.60027c-0.01784,-0.01098 -0.03585,-0.02183 -0.05403,-0.03255c-0.45058,-0.26554 -1.00398,-0.44718 -1.63764,-0.44718c-0.52513,0 -1.01904,0.09499 -1.46735,0.2773c-1.45719,0.5926 -2.43265,2.10782 -2.43265,4.2827c0,2.3136 1.07093,3.8633 2.64508,4.3685c0.36908,0.1185 0.76583,0.1795 1.18292,0.1795c1.14,0 2.004,-0.456 2.7,-1.26l-0.612,-0.708c-0.0304,0.0336 -0.06101,0.0665 -0.09185,0.0987c-0.19543,0.2037 -0.40008,0.3773 -0.61923,0.516c-0.38786,0.2454 -0.82111,0.3813 -1.32892,0.3813c-0.29863,0 -0.57754,-0.044 -0.83431,-0.1288zM14.304,10.668c0,-1.20951 -0.4391,-2.13621 -1.1039,-2.72001c-0.529,-0.46456 -1.2009,-0.71199 -1.9081,-0.71199c-0.6918,0 -1.34975,0.23673 -1.87324,0.68184c-0.68425,0.5818 -1.13876,1.51961 -1.13876,2.75016c0,1.1775 0.42081,2.084 1.06218,2.665c0.53516,0.4848 1.22382,0.743 1.94982,0.743c0.7422,0 1.4455,-0.2699 1.9855,-0.7759c0.6213,-0.5821 1.0265,-1.4766 1.0265,-2.6321zM21.576,10.668c0,-1.2095 -0.4391,-2.1362 -1.1039,-2.72c-0.529,-0.46457 -1.2009,-0.712 -1.9081,-0.712c-0.6918,0 -1.3498,0.23673 -1.8733,0.68185c-0.6842,0.58179 -1.1387,1.51961 -1.1387,2.75015c0,1.1775 0.4208,2.084 1.0622,2.665c0.5351,0.4848 1.2239,0.743 1.9498,0.743c0.7422,0 1.4455,-0.2699 1.9855,-0.7759c0.6213,-0.5821 1.0265,-1.4766 1.0265,-2.6321zM9.408,10.668c0,-0.87685 0.25834,-1.58557 0.6983,-2.02309c0.3127,-0.31094 0.7171,-0.48491 1.1857,-0.48491c0.4796,0 0.8941,0.1822 1.2121,0.50694c0.4301,0.43909 0.6839,1.13878 0.6839,2.00106c0,0.8225 -0.2309,1.4935 -0.6255,1.9318c-0.325,0.361 -0.7611,0.5642 -1.2705,0.5642c-0.498,0 -0.9235,-0.1942 -1.2435,-0.5401c-0.4047,-0.4376 -0.6405,-1.1182 -0.6405,-1.9559zM16.68,10.668c0,-0.87686 0.2583,-1.58558 0.6983,-2.02311c0.3127,-0.31093 0.7171,-0.48489 1.1857,-0.48489c0.4796,0 0.8941,0.18219 1.2121,0.50693c0.4301,0.43909 0.6839,1.13879 0.6839,2.00107c0,0.8225 -0.2309,1.4935 -0.6255,1.9318c-0.325,0.361 -0.7611,0.5642 -1.2705,0.5642c-0.498,0 -0.9235,-0.1942 -1.2435,-0.5401c-0.4047,-0.4376 -0.6405,-1.1182 -0.6405,-1.9559zM12.188,10.668c0,-0.52503 -0.10737,-0.92922 -0.3221,-1.21259c-0.1492,-0.19694 -0.3405,-0.29541 -0.5739,-0.29541c-0.23073,0 -0.41917,0.09731 -0.5653,0.29194c-0.21247,0.28294 -0.3187,0.68829 -0.3187,1.21606c0,0.52567 0.10557,0.92813 0.3167,1.2074c0.14547,0.1924 0.33457,0.2886 0.5673,0.2886c0.23547,0 0.42743,-0.09733 0.5759,-0.292c0.2134,-0.27973 0.3201,-0.68107 0.3201,-1.204zM19.46,10.668c0,-0.52503 -0.10737,-0.92922 -0.3221,-1.21259c-0.1492,-0.19694 -0.3405,-0.29541 -0.5739,-0.29541c-0.23073,0 -0.41917,0.09731 -0.5653,0.29194c-0.21247,0.28294 -0.3187,0.68829 -0.3187,1.21606c0,0.52567 0.10557,0.92813 0.3167,1.2074c0.14547,0.1924 0.33457,0.2886 0.5673,0.2886c0.23547,0 0.42743,-0.09733 0.5759,-0.292c0.2134,-0.27973 0.3201,-0.68107 0.3201,-1.204z"></path></g></g><defs><filter id="filter_0" x="0.303985595703125" y="-6" width="61" height="46" filterUnits="userSpaceOnUse" color-interpolation-filters="sRGB"><feFlood flood-opacity="0" result="feFloodId"/>
          <feColorMatrix in="SourceAlpha" type="matrix" values="0 0 0 0 0 0 0 0 0 0 0 0 0 0 0 0 0 0 127 0" result="hardAlpha"/>
          
          <feOffset dx="0" dy="2"/>
          <feComposite in2="hardAlpha" operator="out"/>
          <feGaussianBlur stdDeviation="2"/>
          <feColorMatrix type="matrix" values="0 0 0 0 0 0 0 0 0 0 0 0 0 0 0 0 0 0 0.25 0"/>
          <feBlend mode="normal" in2="filter_feFlood" result="filter_feFlood_1"/>
          <feBlend mode="normal" in="SourceGraphic" in2="filter_0" result="shape"/></filter></defs></svg>